<svg xmlns="http://www.w3.org/2000/svg" viewBox="0 0 288.46 254.74"><defs><style>.cls-1{font-size:117.41px;}.cls-1,.cls-3{font-family:SteelfishRg-Regular, Steelfish;}.cls-2{fill:#fff;}.cls-3{font-size:48.59px;letter-spacing:0.03em;}.cls-4{letter-spacing:0.03em;}.cls-5{letter-spacing:0.03em;}.cls-6{fill:#fc440f;opacity:0.75;}.cls-7{fill:#84a59d;opacity:0.86;}</style></defs><g id="Layer_2" data-name="Layer 2"><g id="Layer_1-2" data-name="Layer 1"><text class="cls-1" transform="translate(0 107.02)">MY</text><path class="cls-2" d="M6.77,203.43V115.64H26.32c23,0,31,5.9,31,24.35,0,10.08-1.84,16.23-7.5,19.67,5.66,3.69,10,6.64,10,20,0,20.54-11.93,23.73-33.44,23.73Zm19.55-49.79c9.46,0,11.43-1.23,11.43-11.07s-2-11.07-11.43-11.07Zm0,33.81c9.46,0,13.89-1.23,13.89-11.07s-4.43-11.06-13.89-11.06Z"/><path class="cls-2" d="M159.48,159.66c0,33.08-2,45.25-28.4,45.25s-28.41-12.17-28.41-45.25c0-32,2-45.49,28.41-45.49S159.48,127.69,159.48,159.66Zm-35.29,0c0,24.35.74,28.16,6.89,28.16S138,184,138,159.66c0-23.85-.73-28.4-6.88-28.4S124.19,135.81,124.19,159.66Z"/><path class="cls-2" d="M202,174.41h21.4c0,18.08-7.75,30.5-26.93,30.5-25.94,0-29.63-10.95-29.63-45.25,0-33.2,4.18-45.49,29.63-45.49,19.18,0,26.93,12.42,26.93,30.49H202c0-7.87-1.1-13.4-6.51-13.4-6.15,0-7.13,4.55-7.13,28.4,0,24.35.86,28.16,7,28.16C200.79,187.82,202,182.53,202,174.41Z"/><path class="cls-2" d="M249.67,154l14.77-38.23h24l-23.27,43.89,23.27,43.77h-24L249.67,165"/><path d="M4.77,201.43V113.64H24.32c23,0,31,5.9,31,24.35,0,10.08-1.84,16.23-7.5,19.67,5.66,3.69,10,6.64,10,20,0,20.54-11.93,23.73-33.44,23.73Zm19.55-49.79c9.46,0,11.43-1.23,11.43-11.07s-2-11.07-11.43-11.07Zm0,33.81c9.46,0,13.89-1.23,13.89-11.07s-4.43-11.06-13.89-11.06Z"/><path d="M157.48,157.66c0,33.08-2,45.25-28.4,45.25s-28.41-12.17-28.41-45.25c0-32,2-45.49,28.41-45.49S157.48,125.69,157.48,157.66Zm-35.29,0c0,24.35.74,28.16,6.89,28.16S136,182,136,157.66c0-23.85-.73-28.4-6.88-28.4S122.19,133.81,122.19,157.66Z"/><path d="M200,172.41h21.4c0,18.08-7.75,30.5-26.93,30.5-25.94,0-29.63-10.95-29.63-45.25,0-33.2,4.18-45.49,29.63-45.49,19.18,0,26.93,12.42,26.93,30.49H200c0-7.87-1.1-13.4-6.51-13.4-6.15,0-7.13,4.55-7.13,28.4,0,24.35.86,28.16,7,28.16C198.79,185.82,200,180.53,200,172.41Z"/><path d="M247.67,152l14.77-38.23h24l-23.27,43.89,23.27,43.77h-24L247.67,163"/><text class="cls-3" transform="translate(163.99 247.5)">cou<tspan class="cls-4" x="47.08" y="0">n</tspan><tspan class="cls-5" x="63.06" y="0">ts</tspan></text><polygon class="cls-6" points="155.84 221.72 155.84 241.97 64.74 241.97 64.74 112.41 84.99 112.41 84.99 221.72 155.84 221.72"/><rect class="cls-7" x="187.3" y="7.13" width="89.07" height="89.07"/><polygon class="cls-6" points="247.67 31.43 247.67 201.48 227.46 201.48 227.46 51.67 90.06 51.67 90.06 31.43 247.67 31.43"/></g></g></svg>